<svg version="1.1" font-family="sans-serif" font-size="8.2px" text-anchor="middle" xmlns="http://www.w3.org/2000/svg" xmlns:xlink="http://www.w3.org/1999/xlink" width="70.336mm" height="91mm" viewBox="0 0 70.336 91">
    <defs>
        <rect id="key" width="11.2" height="11" rx="1.4" ry="1.4" stroke="#b1b5b9" stroke-width=".75"></rect>
        <pattern id="wires" width="2.54" height="8" patternUnits="userSpaceOnUse">
            <rect width="2.54" height="8" fill="#eee"></rect>
            <rect x="0.77" width="1" height="6" fill="#d9d5bc"></rect>
            <circle cx="1.27" cy="6" r="0.75" fill="#d9d5bc"></circle>
            <rect x="0.52" y="6" width="1.5" height="2" fill="#d9d5bc"></rect>
        </pattern>
        <pattern id="wires-marks" width="2.54" height="8" patternUnits="userSpaceOnUse">
            <rect x="0.52" y="6" width="1.5" height="2" fill="#746d41"></rect>
        </pattern>
        <pattern id="pins-female" width="2.54" height="2.54" patternUnits="userSpaceOnUse">
            <rect x="0" y="0" width="2.54" height="2.54" fill="#333"></rect>
            <rect x="1.079" y="0.896" width="0.762" height="0.762" style="fill: #191919"></rect>
            <path transform="translate(1.079, 1.658) rotate(180 0 0)" d="m 0 0 v 0.762 l 0.433,0.433 c 0.046,-0.046 0.074,-0.109 0.074,-0.179 v -1.27 c 0,-0.070 -0.028,-0.133 -0.074,-0.179 z" style="opacity: 0.25"></path>
            <path transform="translate(1.841, 1.658) rotate(90 0 0)" d="m 0 0 v 0.762 l 0.433,0.433 c 0.046,-0.046 0.074,-0.109 0.074,-0.179 v -1.27 c 0,-0.070 -0.028,-0.133 -0.074,-0.179 z" style="opacity: 0.3; fill: #fff"></path>
            <path transform="translate(1.841, 0.896)" d="m 0 0 v 0.762 l 0.433,0.433 c 0.046,-0.046 0.074,-0.109 0.074,-0.179 v -1.27 c 0,-0.070 -0.028,-0.133 -0.074,-0.179 z" style="opacity: 0.15; fill: #fff"></path>
            <path transform="translate(1.079, 0.896) rotate(270 0 0)" d="m 0 0 v 0.762 l 0.433,0.433 c 0.046,-0.046 0.074,-0.109 0.074,-0.179 v -1.27 c 0,-0.070 -0.028,-0.133 -0.074,-0.179 z" style="opacity: 0.35"></path>
        </pattern>
        <filter id="shadow">
            <feDropShadow dx="0" dy="0" stdDeviation="0.5" flood-color="#ffff99"></feDropShadow>
        </filter>
    </defs>

    <rect x="0" y="0" height="76" rx="5" ry="5" fill="#454449" width="70.336"></rect>
    <rect x="2.78" y="3.25" height="68.6" rx="3.5" ry="3.5" fill="none" stroke="#b1b5b9" stroke-width="1" width="65"></rect>

    <g transform="translate(25.008, 76)">
        <rect height="8" fill="url(#wires)" width="20.32"></rect>
        <rect width="10.16" height="8" fill="url(#wires-marks)"></rect>
        <rect y="8" height="7" fill="#333" width="20.32"></rect>
        <rect transform="translate(0, 12)" height="2.54" fill="url(#pins-female)" width="20.32"></rect>
    </g>

    <g fill="#4e90d7">
        <g tabindex="0" transform="translate(7 10.7)" class="key-button" data-key-name="1"><use xlink:href="#key"></use><text x="5.6" y="8.1">1</text></g>
        <g tabindex="0" transform="translate(22 10.7)" class="key-button" data-key-name="2"><use xlink:href="#key"></use><text x="5.6" y="8.1">2</text></g>
        <g tabindex="0" transform="translate(37 10.7)" class="key-button" data-key-name="3"><use xlink:href="#key"></use><text x="5.6" y="8.1">3</text></g>
        <g tabindex="0" transform="translate(7 25)" class="key-button" data-key-name="4"><use xlink:href="#key"></use><text x="5.6" y="8.1">4</text></g>
        <g tabindex="0" transform="translate(22 25)" class="key-button" data-key-name="5"><use xlink:href="#key"></use><text x="5.6" y="8.1">5</text></g>
        <g tabindex="0" transform="translate(37 25)" class="key-button" data-key-name="6"><use xlink:href="#key"></use><text x="5.6" y="8.1">6</text></g>
        <g tabindex="0" transform="translate(7 39.3)" class="key-button" data-key-name="7"><use xlink:href="#key"></use><text x="5.6" y="8.1">7</text></g>
        <g tabindex="0" transform="translate(22 39.3)" class="key-button" data-key-name="8"><use xlink:href="#key"></use><text x="5.6" y="8.1">8</text></g>
        <g tabindex="0" transform="translate(37 39.3)" class="key-button" data-key-name="9"><use xlink:href="#key"></use><text x="5.6" y="8.1">9</text></g>
        <g tabindex="0" transform="translate(22 53.6)" class="key-button" data-key-name="0"><use xlink:href="#key"></use><text x="5.6" y="8.1">0</text></g>
    </g>

    <g fill="#e94541">
        <g tabindex="0" transform="translate(7 53.6)" class="key-button" data-key-name="*"><use xlink:href="#key"></use><text x="5.6" y="8.1">*</text></g>
        <g tabindex="0" transform="translate(37 53.6)" class="key-button" data-key-name="#"><use xlink:href="#key"></use><text x="5.6" y="8.1">#</text></g>
        <g tabindex="0" transform="translate(52 10.7)" class="key-button" data-key-name="A"><use xlink:href="#key"></use><text x="5.6" y="8.1">A</text></g>
        <g tabindex="0" transform="translate(52 25)" class="key-button" data-key-name="B"><use xlink:href="#key"></use><text x="5.6" y="8.1">B</text></g>
        <g tabindex="0" transform="translate(52 39.3)" class="key-button" data-key-name="C"><use xlink:href="#key"></use><text x="5.6" y="8.1">C</text></g>
        <g tabindex="0" transform="translate(52 53.6)" class="key-button" data-key-name="D"><use xlink:href="#key"></use><text x="5.6" y="8.1">D</text></g>
    </g>
</svg>